<svg xmlns="http://www.w3.org/2000/svg" width="200" height="200" viewBox="0 0 24 24">
<line x1="12.00" y1="12.00" x2="12.04" y2="12.00" stroke="#7f7f7f" stroke-width="1.5" stroke-linecap="round" /><line x1="12.04" y1="12.00" x2="12.08" y2="12.01" stroke="#7f7f7f" stroke-width="1.5" stroke-linecap="round" /><line x1="12.08" y1="12.01" x2="12.12" y2="12.02" stroke="#7e7e7e" stroke-width="1.5" stroke-linecap="round" /><line x1="12.12" y1="12.02" x2="12.15" y2="12.04" stroke="#7e7e7e" stroke-width="1.5" stroke-linecap="round" /><line x1="12.15" y1="12.04" x2="12.19" y2="12.06" stroke="#7d7d7d" stroke-width="1.5" stroke-linecap="round" /><line x1="12.19" y1="12.06" x2="12.22" y2="12.09" stroke="#7d7d7d" stroke-width="1.5" stroke-linecap="round" /><line x1="12.22" y1="12.09" x2="12.25" y2="12.12" stroke="#7c7c7c" stroke-width="1.5" stroke-linecap="round" /><line x1="12.25" y1="12.12" x2="12.28" y2="12.15" stroke="#7c7c7c" stroke-width="1.5" stroke-linecap="round" /><line x1="12.28" y1="12.15" x2="12.30" y2="12.19" stroke="#7b7b7b" stroke-width="1.5" stroke-linecap="round" /><line x1="12.30" y1="12.19" x2="12.32" y2="12.24" stroke="#7a7a7a" stroke-width="1.5" stroke-linecap="round" /><line x1="12.32" y1="12.24" x2="12.34" y2="12.28" stroke="#7a7a7a" stroke-width="1.5" stroke-linecap="round" /><line x1="12.34" y1="12.28" x2="12.35" y2="12.33" stroke="#797979" stroke-width="1.5" stroke-linecap="round" /><line x1="12.35" y1="12.33" x2="12.36" y2="12.38" stroke="#787878" stroke-width="1.5" stroke-linecap="round" /><line x1="12.36" y1="12.38" x2="12.36" y2="12.43" stroke="#787878" stroke-width="1.5" stroke-linecap="round" /><line x1="12.36" y1="12.43" x2="12.35" y2="12.49" stroke="#777777" stroke-width="1.5" stroke-linecap="round" /><line x1="12.35" y1="12.49" x2="12.34" y2="12.54" stroke="#767676" stroke-width="1.5" stroke-linecap="round" /><line x1="12.34" y1="12.54" x2="12.33" y2="12.60" stroke="#767676" stroke-width="1.5" stroke-linecap="round" /><line x1="12.33" y1="12.60" x2="12.31" y2="12.65" stroke="#757575" stroke-width="1.5" stroke-linecap="round" /><line x1="12.31" y1="12.65" x2="12.28" y2="12.71" stroke="#747474" stroke-width="1.5" stroke-linecap="round" /><line x1="12.28" y1="12.71" x2="12.25" y2="12.76" stroke="#737373" stroke-width="1.5" stroke-linecap="round" /><line x1="12.25" y1="12.76" x2="12.21" y2="12.81" stroke="#737373" stroke-width="1.5" stroke-linecap="round" /><line x1="12.21" y1="12.81" x2="12.16" y2="12.86" stroke="#727272" stroke-width="1.5" stroke-linecap="round" /><line x1="12.16" y1="12.86" x2="12.12" y2="12.91" stroke="#717171" stroke-width="1.5" stroke-linecap="round" /><line x1="12.12" y1="12.91" x2="12.06" y2="12.96" stroke="#707070" stroke-width="1.5" stroke-linecap="round" /><line x1="12.06" y1="12.96" x2="12.00" y2="13.00" stroke="#6f6f6f" stroke-width="1.5" stroke-linecap="round" /><line x1="12.00" y1="13.00" x2="11.93" y2="13.04" stroke="#6e6e6e" stroke-width="1.5" stroke-linecap="round" /><line x1="11.93" y1="13.04" x2="11.86" y2="13.07" stroke="#6d6d6d" stroke-width="1.5" stroke-linecap="round" /><line x1="11.86" y1="13.07" x2="11.79" y2="13.10" stroke="#6c6c6c" stroke-width="1.5" stroke-linecap="round" /><line x1="11.79" y1="13.10" x2="11.71" y2="13.12" stroke="#6b6b6b" stroke-width="1.5" stroke-linecap="round" /><line x1="11.71" y1="13.12" x2="11.63" y2="13.14" stroke="#6a6a6a" stroke-width="1.5" stroke-linecap="round" /><line x1="11.63" y1="13.14" x2="11.54" y2="13.15" stroke="#696969" stroke-width="1.5" stroke-linecap="round" /><line x1="11.54" y1="13.15" x2="11.46" y2="13.16" stroke="#686868" stroke-width="1.5" stroke-linecap="round" /><line x1="11.46" y1="13.16" x2="11.36" y2="13.16" stroke="#676767" stroke-width="1.5" stroke-linecap="round" /><line x1="11.36" y1="13.16" x2="11.27" y2="13.15" stroke="#656565" stroke-width="1.5" stroke-linecap="round" /><line x1="11.27" y1="13.15" x2="11.18" y2="13.13" stroke="#646464" stroke-width="1.5" stroke-linecap="round" /><line x1="11.18" y1="13.13" x2="11.08" y2="13.11" stroke="#636363" stroke-width="1.5" stroke-linecap="round" /><line x1="11.08" y1="13.11" x2="10.99" y2="13.08" stroke="#626262" stroke-width="1.5" stroke-linecap="round" /><line x1="10.99" y1="13.08" x2="10.89" y2="13.04" stroke="#606060" stroke-width="1.5" stroke-linecap="round" /><line x1="10.89" y1="13.04" x2="10.80" y2="12.99" stroke="#5f5f5f" stroke-width="1.5" stroke-linecap="round" /><line x1="10.80" y1="12.99" x2="10.71" y2="12.94" stroke="#5e5e5e" stroke-width="1.5" stroke-linecap="round" /><line x1="10.71" y1="12.94" x2="10.62" y2="12.88" stroke="#5c5c5c" stroke-width="1.5" stroke-linecap="round" /><line x1="10.62" y1="12.88" x2="10.53" y2="12.81" stroke="#5b5b5b" stroke-width="1.5" stroke-linecap="round" /><line x1="10.53" y1="12.81" x2="10.44" y2="12.73" stroke="#5a5a5a" stroke-width="1.5" stroke-linecap="round" /><line x1="10.44" y1="12.73" x2="10.36" y2="12.65" stroke="#585858" stroke-width="1.5" stroke-linecap="round" /><line x1="10.36" y1="12.65" x2="10.29" y2="12.56" stroke="#575757" stroke-width="1.5" stroke-linecap="round" /><line x1="10.29" y1="12.56" x2="10.22" y2="12.46" stroke="#555555" stroke-width="1.5" stroke-linecap="round" /><line x1="10.22" y1="12.46" x2="10.15" y2="12.35" stroke="#535353" stroke-width="1.5" stroke-linecap="round" /><line x1="10.15" y1="12.35" x2="10.10" y2="12.24" stroke="#525252" stroke-width="1.5" stroke-linecap="round" /><line x1="10.10" y1="12.24" x2="10.04" y2="12.12" stroke="#505050" stroke-width="1.5" stroke-linecap="round" /><line x1="10.04" y1="12.12" x2="10.00" y2="12.00" stroke="#4f4f4f" stroke-width="1.5" stroke-linecap="round" /><line x1="10.00" y1="12.00" x2="9.96" y2="11.87" stroke="#4d4d4d" stroke-width="1.5" stroke-linecap="round" /><line x1="9.96" y1="11.87" x2="9.94" y2="11.74" stroke="#4b4b4b" stroke-width="1.5" stroke-linecap="round" /><line x1="9.94" y1="11.74" x2="9.92" y2="11.60" stroke="#494949" stroke-width="1.5" stroke-linecap="round" /><line x1="9.92" y1="11.60" x2="9.91" y2="11.46" stroke="#484848" stroke-width="1.5" stroke-linecap="round" /><line x1="9.91" y1="11.46" x2="9.91" y2="11.32" stroke="#464646" stroke-width="1.5" stroke-linecap="round" /><line x1="9.91" y1="11.32" x2="9.92" y2="11.18" stroke="#444444" stroke-width="1.5" stroke-linecap="round" /><line x1="9.92" y1="11.18" x2="9.94" y2="11.03" stroke="#424242" stroke-width="1.5" stroke-linecap="round" /><line x1="9.94" y1="11.03" x2="9.97" y2="10.88" stroke="#404040" stroke-width="1.5" stroke-linecap="round" /><line x1="9.97" y1="10.88" x2="10.01" y2="10.74" stroke="#3e3e3e" stroke-width="1.5" stroke-linecap="round" /><line x1="10.01" y1="10.74" x2="10.06" y2="10.59" stroke="#3c3c3c" stroke-width="1.5" stroke-linecap="round" /><line x1="10.06" y1="10.59" x2="10.12" y2="10.44" stroke="#3a3a3a" stroke-width="1.5" stroke-linecap="round" /><line x1="10.12" y1="10.44" x2="10.19" y2="10.30" stroke="#383838" stroke-width="1.5" stroke-linecap="round" /><line x1="10.19" y1="10.30" x2="10.27" y2="10.16" stroke="#363636" stroke-width="1.5" stroke-linecap="round" /><line x1="10.27" y1="10.16" x2="10.37" y2="10.03" stroke="#343434" stroke-width="1.5" stroke-linecap="round" /><line x1="10.37" y1="10.03" x2="10.47" y2="9.90" stroke="#323232" stroke-width="1.5" stroke-linecap="round" /><line x1="10.47" y1="9.90" x2="10.59" y2="9.77" stroke="#303030" stroke-width="1.5" stroke-linecap="round" /><line x1="10.59" y1="9.77" x2="10.71" y2="9.65" stroke="#2e2e2e" stroke-width="1.5" stroke-linecap="round" /><line x1="10.71" y1="9.65" x2="10.84" y2="9.54" stroke="#2b2b2b" stroke-width="1.5" stroke-linecap="round" /><line x1="10.84" y1="9.54" x2="10.98" y2="9.43" stroke="#292929" stroke-width="1.5" stroke-linecap="round" /><line x1="10.98" y1="9.43" x2="11.13" y2="9.34" stroke="#272727" stroke-width="1.5" stroke-linecap="round" /><line x1="11.13" y1="9.34" x2="11.29" y2="9.25" stroke="#252525" stroke-width="1.5" stroke-linecap="round" /><line x1="11.29" y1="9.25" x2="11.46" y2="9.17" stroke="#222222" stroke-width="1.5" stroke-linecap="round" /><line x1="11.46" y1="9.17" x2="11.63" y2="9.10" stroke="#202020" stroke-width="1.5" stroke-linecap="round" /><line x1="11.63" y1="9.10" x2="11.81" y2="9.05" stroke="#1e1e1e" stroke-width="1.5" stroke-linecap="round" /><line x1="11.81" y1="9.05" x2="12.00" y2="9.00" stroke="#1b1b1b" stroke-width="1.5" stroke-linecap="round" /><line x1="12.00" y1="9.00" x2="12.19" y2="8.97" stroke="#191919" stroke-width="1.5" stroke-linecap="round" /><line x1="12.19" y1="8.97" x2="12.39" y2="8.94" stroke="#161616" stroke-width="1.5" stroke-linecap="round" /><line x1="12.39" y1="8.94" x2="12.58" y2="8.94" stroke="#141414" stroke-width="1.5" stroke-linecap="round" /><line x1="12.58" y1="8.94" x2="12.79" y2="8.94" stroke="#111111" stroke-width="1.5" stroke-linecap="round" /><line x1="12.79" y1="8.94" x2="12.99" y2="8.96" stroke="#0e0e0e" stroke-width="1.5" stroke-linecap="round" /><line x1="12.99" y1="8.96" x2="13.19" y2="8.99" stroke="#0c0c0c" stroke-width="1.5" stroke-linecap="round" /><line x1="13.19" y1="8.99" x2="13.40" y2="9.03" stroke="#090909" stroke-width="1.5" stroke-linecap="round" /><line x1="13.40" y1="9.03" x2="13.60" y2="9.09" stroke="#060606" stroke-width="1.5" stroke-linecap="round" /><line x1="13.60" y1="9.09" x2="13.80" y2="9.16" stroke="#040404" stroke-width="1.5" stroke-linecap="round" /><line x1="13.80" y1="9.16" x2="14.00" y2="9.25" stroke="#010101" stroke-width="1.5" stroke-linecap="round" /><line x1="14.00" y1="9.25" x2="14.19" y2="9.35" stroke="#020202" stroke-width="1.5" stroke-linecap="round" /><line x1="14.19" y1="9.35" x2="14.38" y2="9.46" stroke="#070707" stroke-width="1.5" stroke-linecap="round" /><line x1="14.38" y1="9.46" x2="14.57" y2="9.59" stroke="#0d0d0d" stroke-width="1.5" stroke-linecap="round" /><line x1="14.57" y1="9.59" x2="14.74" y2="9.73" stroke="#121212" stroke-width="1.5" stroke-linecap="round" /><line x1="14.74" y1="9.73" x2="14.91" y2="9.88" stroke="#171717" stroke-width="1.5" stroke-linecap="round" /><line x1="14.91" y1="9.88" x2="15.07" y2="10.05" stroke="#1d1d1d" stroke-width="1.5" stroke-linecap="round" /><line x1="15.07" y1="10.05" x2="15.22" y2="10.23" stroke="#222222" stroke-width="1.5" stroke-linecap="round" /><line x1="15.22" y1="10.23" x2="15.37" y2="10.42" stroke="#282828" stroke-width="1.5" stroke-linecap="round" /><line x1="15.37" y1="10.42" x2="15.50" y2="10.62" stroke="#2e2e2e" stroke-width="1.5" stroke-linecap="round" /><line x1="15.50" y1="10.62" x2="15.61" y2="10.83" stroke="#343434" stroke-width="1.5" stroke-linecap="round" /><line x1="15.61" y1="10.83" x2="15.72" y2="11.05" stroke="#393939" stroke-width="1.5" stroke-linecap="round" /><line x1="15.72" y1="11.05" x2="15.81" y2="11.27" stroke="#3f3f3f" stroke-width="1.5" stroke-linecap="round" /><line x1="15.81" y1="11.27" x2="15.89" y2="11.51" stroke="#454545" stroke-width="1.5" stroke-linecap="round" /><line x1="15.89" y1="11.51" x2="15.95" y2="11.75" stroke="#4b4b4b" stroke-width="1.5" stroke-linecap="round" /><line x1="15.95" y1="11.75" x2="16.00" y2="12.00" stroke="#515151" stroke-width="1.5" stroke-linecap="round" /><line x1="16.00" y1="12.00" x2="16.03" y2="12.25" stroke="#575757" stroke-width="1.5" stroke-linecap="round" /><line x1="16.03" y1="12.25" x2="16.05" y2="12.51" stroke="#5d5d5d" stroke-width="1.5" stroke-linecap="round" /><line x1="16.05" y1="12.51" x2="16.05" y2="12.77" stroke="#646464" stroke-width="1.5" stroke-linecap="round" /><line x1="16.05" y1="12.77" x2="16.03" y2="13.03" stroke="#6a6a6a" stroke-width="1.5" stroke-linecap="round" /><line x1="16.03" y1="13.03" x2="15.99" y2="13.30" stroke="#707070" stroke-width="1.5" stroke-linecap="round" /><line x1="15.99" y1="13.30" x2="15.94" y2="13.56" stroke="#777777" stroke-width="1.5" stroke-linecap="round" /><line x1="15.94" y1="13.56" x2="15.87" y2="13.82" stroke="#7d7d7d" stroke-width="1.5" stroke-linecap="round" /><line x1="15.87" y1="13.82" x2="15.79" y2="14.08" stroke="#848484" stroke-width="1.5" stroke-linecap="round" /><line x1="15.79" y1="14.08" x2="15.68" y2="14.34" stroke="#8a8a8a" stroke-width="1.5" stroke-linecap="round" /><line x1="15.68" y1="14.34" x2="15.56" y2="14.59" stroke="#919191" stroke-width="1.5" stroke-linecap="round" /><line x1="15.56" y1="14.59" x2="15.42" y2="14.83" stroke="#989898" stroke-width="1.5" stroke-linecap="round" /><line x1="15.42" y1="14.83" x2="15.27" y2="15.07" stroke="#9e9e9e" stroke-width="1.5" stroke-linecap="round" /><line x1="15.27" y1="15.07" x2="15.09" y2="15.29" stroke="#a5a5a5" stroke-width="1.5" stroke-linecap="round" /><line x1="15.09" y1="15.29" x2="14.91" y2="15.51" stroke="#acacac" stroke-width="1.5" stroke-linecap="round" /><line x1="14.91" y1="15.51" x2="14.70" y2="15.72" stroke="#b3b3b3" stroke-width="1.5" stroke-linecap="round" /><line x1="14.70" y1="15.72" x2="14.49" y2="15.92" stroke="#bababa" stroke-width="1.5" stroke-linecap="round" /><line x1="14.49" y1="15.92" x2="14.25" y2="16.10" stroke="#c1c1c1" stroke-width="1.5" stroke-linecap="round" /><line x1="14.25" y1="16.10" x2="14.01" y2="16.27" stroke="#c8c8c8" stroke-width="1.5" stroke-linecap="round" /><line x1="14.01" y1="16.27" x2="13.75" y2="16.43" stroke="#cfcfcf" stroke-width="1.5" stroke-linecap="round" /><line x1="13.75" y1="16.43" x2="13.48" y2="16.57" stroke="#d7d7d7" stroke-width="1.5" stroke-linecap="round" /><line x1="13.48" y1="16.57" x2="13.20" y2="16.69" stroke="#dedede" stroke-width="1.5" stroke-linecap="round" /><line x1="13.20" y1="16.69" x2="12.91" y2="16.79" stroke="#e5e5e5" stroke-width="1.5" stroke-linecap="round" /><line x1="12.91" y1="16.79" x2="12.62" y2="16.88" stroke="#ededed" stroke-width="1.5" stroke-linecap="round" /><line x1="12.62" y1="16.88" x2="12.31" y2="16.95" stroke="#ededed" stroke-width="1.5" stroke-linecap="round" /><line x1="12.31" y1="16.95" x2="12.00" y2="17.00" stroke="#eaeaea" stroke-width="1.5" stroke-linecap="round" /><line x1="12.00" y1="17.00" x2="11.68" y2="17.03" stroke="#e6e6e6" stroke-width="1.5" stroke-linecap="round" /><line x1="11.68" y1="17.03" x2="11.36" y2="17.04" stroke="#e3e3e3" stroke-width="1.5" stroke-linecap="round" /><line x1="11.36" y1="17.04" x2="11.04" y2="17.03" stroke="#dfdfdf" stroke-width="1.5" stroke-linecap="round" /><line x1="11.04" y1="17.03" x2="10.72" y2="17.00" stroke="#dbdbdb" stroke-width="1.5" stroke-linecap="round" /><line x1="10.72" y1="17.00" x2="10.39" y2="16.95" stroke="#d8d8d8" stroke-width="1.5" stroke-linecap="round" /><line x1="10.39" y1="16.95" x2="10.07" y2="16.87" stroke="#d4d4d4" stroke-width="1.5" stroke-linecap="round" /><line x1="10.07" y1="16.87" x2="9.75" y2="16.78" stroke="#d0d0d0" stroke-width="1.5" stroke-linecap="round" /><line x1="9.75" y1="16.78" x2="9.44" y2="16.66" stroke="#cdcdcd" stroke-width="1.5" stroke-linecap="round" /><line x1="9.44" y1="16.66" x2="9.13" y2="16.53" stroke="#c9c9c9" stroke-width="1.5" stroke-linecap="round" /><line x1="9.13" y1="16.53" x2="8.83" y2="16.37" stroke="#c5c5c5" stroke-width="1.5" stroke-linecap="round" /><line x1="8.83" y1="16.37" x2="8.53" y2="16.19" stroke="#c1c1c1" stroke-width="1.5" stroke-linecap="round" /><line x1="8.53" y1="16.19" x2="8.25" y2="15.99" stroke="#bdbdbd" stroke-width="1.5" stroke-linecap="round" /><line x1="8.25" y1="15.99" x2="7.98" y2="15.78" stroke="#bababa" stroke-width="1.5" stroke-linecap="round" /><line x1="7.98" y1="15.78" x2="7.72" y2="15.54" stroke="#b6b6b6" stroke-width="1.5" stroke-linecap="round" /><line x1="7.72" y1="15.54" x2="7.47" y2="15.29" stroke="#b2b2b2" stroke-width="1.5" stroke-linecap="round" /><line x1="7.47" y1="15.29" x2="7.24" y2="15.02" stroke="#aeaeae" stroke-width="1.5" stroke-linecap="round" /><line x1="7.24" y1="15.02" x2="7.02" y2="14.74" stroke="#aaaaaa" stroke-width="1.5" stroke-linecap="round" /><line x1="7.02" y1="14.74" x2="6.82" y2="14.44" stroke="#a6a6a6" stroke-width="1.5" stroke-linecap="round" /><line x1="6.82" y1="14.44" x2="6.64" y2="14.12" stroke="#a2a2a2" stroke-width="1.5" stroke-linecap="round" /><line x1="6.64" y1="14.12" x2="6.48" y2="13.79" stroke="#9e9e9e" stroke-width="1.5" stroke-linecap="round" /><line x1="6.48" y1="13.79" x2="6.34" y2="13.45" stroke="#999999" stroke-width="1.5" stroke-linecap="round" /><line x1="6.34" y1="13.45" x2="6.22" y2="13.10" stroke="#959595" stroke-width="1.5" stroke-linecap="round" /><line x1="6.22" y1="13.10" x2="6.13" y2="12.74" stroke="#919191" stroke-width="1.5" stroke-linecap="round" /><line x1="6.13" y1="12.74" x2="6.05" y2="12.37" stroke="#8d8d8d" stroke-width="1.5" stroke-linecap="round" /><line x1="6.05" y1="12.37" x2="6.00" y2="12.00" stroke="#898989" stroke-width="1.5" stroke-linecap="round" /><line x1="6.00" y1="12.00" x2="5.97" y2="11.62" stroke="#858585" stroke-width="1.5" stroke-linecap="round" /><line x1="5.97" y1="11.62" x2="5.97" y2="11.24" stroke="#808080" stroke-width="1.5" stroke-linecap="round" /><line x1="5.97" y1="11.24" x2="5.99" y2="10.85" stroke="#7b7b7b" stroke-width="1.5" stroke-linecap="round" /><line x1="5.99" y1="10.85" x2="6.03" y2="10.47" stroke="#767676" stroke-width="1.5" stroke-linecap="round" /><line x1="6.03" y1="10.47" x2="6.10" y2="10.08" stroke="#717171" stroke-width="1.5" stroke-linecap="round" /><line x1="6.10" y1="10.08" x2="6.20" y2="9.70" stroke="#6c6c6c" stroke-width="1.5" stroke-linecap="round" /><line x1="6.20" y1="9.70" x2="6.32" y2="9.33" stroke="#676767" stroke-width="1.5" stroke-linecap="round" /><line x1="6.32" y1="9.33" x2="6.46" y2="8.96" stroke="#626262" stroke-width="1.5" stroke-linecap="round" /><line x1="6.46" y1="8.96" x2="6.63" y2="8.59" stroke="#5d5d5d" stroke-width="1.5" stroke-linecap="round" /><line x1="6.63" y1="8.59" x2="6.82" y2="8.24" stroke="#585858" stroke-width="1.5" stroke-linecap="round" /><line x1="6.82" y1="8.24" x2="7.04" y2="7.89" stroke="#535353" stroke-width="1.5" stroke-linecap="round" /><line x1="7.04" y1="7.89" x2="7.28" y2="7.56" stroke="#4e4e4e" stroke-width="1.5" stroke-linecap="round" /><line x1="7.28" y1="7.56" x2="7.54" y2="7.25" stroke="#494949" stroke-width="1.5" stroke-linecap="round" /><line x1="7.54" y1="7.25" x2="7.82" y2="6.95" stroke="#434343" stroke-width="1.5" stroke-linecap="round" /><line x1="7.82" y1="6.95" x2="8.12" y2="6.66" stroke="#3e3e3e" stroke-width="1.5" stroke-linecap="round" /><line x1="8.12" y1="6.66" x2="8.44" y2="6.39" stroke="#393939" stroke-width="1.5" stroke-linecap="round" /><line x1="8.44" y1="6.39" x2="8.78" y2="6.15" stroke="#333333" stroke-width="1.5" stroke-linecap="round" /><line x1="8.78" y1="6.15" x2="9.14" y2="5.92" stroke="#2e2e2e" stroke-width="1.5" stroke-linecap="round" /><line x1="9.14" y1="5.92" x2="9.51" y2="5.71" stroke="#282828" stroke-width="1.5" stroke-linecap="round" /><line x1="9.51" y1="5.71" x2="9.90" y2="5.53" stroke="#232323" stroke-width="1.5" stroke-linecap="round" /><line x1="9.90" y1="5.53" x2="10.30" y2="5.37" stroke="#1d1d1d" stroke-width="1.5" stroke-linecap="round" /><line x1="10.30" y1="5.37" x2="10.71" y2="5.24" stroke="#181818" stroke-width="1.5" stroke-linecap="round" /><line x1="10.71" y1="5.24" x2="11.13" y2="5.13" stroke="#121212" stroke-width="1.5" stroke-linecap="round" /><line x1="11.13" y1="5.13" x2="11.56" y2="5.05" stroke="#0d0d0d" stroke-width="1.5" stroke-linecap="round" /><line x1="11.56" y1="5.05" x2="12.00" y2="5.00" stroke="#070707" stroke-width="1.5" stroke-linecap="round" /><line x1="12.00" y1="5.00" x2="12.44" y2="4.97" stroke="#020202" stroke-width="1.5" stroke-linecap="round" /><line x1="12.44" y1="4.97" x2="12.89" y2="4.98" stroke="#060606" stroke-width="1.5" stroke-linecap="round" /><line x1="12.89" y1="4.98" x2="13.33" y2="5.01" stroke="#111111" stroke-width="1.5" stroke-linecap="round" /><line x1="13.33" y1="5.01" x2="13.78" y2="5.06" stroke="#1c1c1c" stroke-width="1.5" stroke-linecap="round" /><line x1="13.78" y1="5.06" x2="14.22" y2="5.15" stroke="#272727" stroke-width="1.5" stroke-linecap="round" /><line x1="14.22" y1="5.15" x2="14.67" y2="5.27" stroke="#323232" stroke-width="1.5" stroke-linecap="round" /><line x1="14.67" y1="5.27" x2="15.10" y2="5.41" stroke="#3d3d3d" stroke-width="1.5" stroke-linecap="round" /><line x1="15.10" y1="5.41" x2="15.53" y2="5.59" stroke="#484848" stroke-width="1.5" stroke-linecap="round" /><line x1="15.53" y1="5.59" x2="15.94" y2="5.79" stroke="#535353" stroke-width="1.5" stroke-linecap="round" /><line x1="15.94" y1="5.79" x2="16.35" y2="6.01" stroke="#5e5e5e" stroke-width="1.5" stroke-linecap="round" /><line x1="16.35" y1="6.01" x2="16.74" y2="6.27" stroke="#696969" stroke-width="1.5" stroke-linecap="round" /><line x1="16.74" y1="6.27" x2="17.12" y2="6.55" stroke="#747474" stroke-width="1.5" stroke-linecap="round" /><line x1="17.12" y1="6.55" x2="17.48" y2="6.85" stroke="#808080" stroke-width="1.5" stroke-linecap="round" /><line x1="17.48" y1="6.85" x2="17.83" y2="7.18" stroke="#8b8b8b" stroke-width="1.5" stroke-linecap="round" /><line x1="17.83" y1="7.18" x2="18.15" y2="7.53" stroke="#969696" stroke-width="1.5" stroke-linecap="round" /><line x1="18.15" y1="7.53" x2="18.45" y2="7.91" stroke="#a2a2a2" stroke-width="1.5" stroke-linecap="round" /><line x1="18.45" y1="7.91" x2="18.73" y2="8.30" stroke="#adadad" stroke-width="1.5" stroke-linecap="round" /><line x1="18.73" y1="8.30" x2="18.99" y2="8.71" stroke="#b9b9b9" stroke-width="1.5" stroke-linecap="round" /><line x1="18.99" y1="8.71" x2="19.22" y2="9.14" stroke="#c5c5c5" stroke-width="1.5" stroke-linecap="round" /><line x1="19.22" y1="9.14" x2="19.42" y2="9.59" stroke="#d0d0d0" stroke-width="1.5" stroke-linecap="round" /><line x1="19.42" y1="9.59" x2="19.59" y2="10.05" stroke="#dcdcdc" stroke-width="1.5" stroke-linecap="round" /><line x1="19.59" y1="10.05" x2="19.74" y2="10.52" stroke="#e8e8e8" stroke-width="1.5" stroke-linecap="round" /><line x1="19.74" y1="10.52" x2="19.86" y2="11.01" stroke="#ededed" stroke-width="1.5" stroke-linecap="round" /><line x1="19.86" y1="11.01" x2="19.94" y2="11.50" stroke="#e8e8e8" stroke-width="1.5" stroke-linecap="round" /><line x1="19.94" y1="11.50" x2="20.00" y2="12.00" stroke="#e2e2e2" stroke-width="1.5" stroke-linecap="round" /></svg>