<svg xmlns="http://www.w3.org/2000/svg" width="200" height="200" viewBox="0 0 24 24">

<polygon points="20.0,12.0 14.82842712474619,14.82842712474619 12.0,20.0 9.17157287525381,14.82842712474619 4.0,12.000000000000002 9.171572875253808,9.17157287525381 11.999999999999998,4.0 14.82842712474619,9.171572875253808" fill="#FF0000" /><polygon points="7.0,4.0 5.060660171779821,5.060660171779821 4.0,7.0 2.939339828220179,5.060660171779821 1.0,4.0 2.9393398282201786,2.939339828220179 3.9999999999999996,1.0 5.060660171779821,2.9393398282201786" fill="#C71585" /><polygon points="23.0,4.0 21.060660171779823,5.060660171779821 20.0,7.0 18.939339828220177,5.060660171779821 17.0,4.0 18.939339828220177,2.939339828220179 20.0,1.0 21.060660171779823,2.9393398282201786" fill="#FFA500" /><polygon points="7.0,20.0 5.060660171779821,21.060660171779823 4.0,23.0 2.939339828220179,21.060660171779823 1.0,20.0 2.9393398282201786,18.939339828220177 3.9999999999999996,17.0 5.060660171779821,18.939339828220177" fill="#FF4500" /><polygon points="23.0,20.0 21.060660171779823,21.060660171779823 20.0,23.0 18.939339828220177,21.060660171779823 17.0,20.0 18.939339828220177,18.939339828220177 20.0,17.0 21.060660171779823,18.939339828220177" fill="#D8BFD8" /></svg>