<svg xmlns="http://www.w3.org/2000/svg" width="200" height="200" viewBox="0 0 24 24">
<line x1="12.00" y1="12.00" x2="12.05" y2="12.01" stroke="#7f7f7f" stroke-width="2.5" stroke-linecap="round" /><line x1="12.05" y1="12.01" x2="12.11" y2="12.03" stroke="#7e7e7e" stroke-width="2.5" stroke-linecap="round" /><line x1="12.11" y1="12.03" x2="12.15" y2="12.06" stroke="#7e7e7e" stroke-width="2.5" stroke-linecap="round" /><line x1="12.15" y1="12.06" x2="12.19" y2="12.11" stroke="#7d7d7d" stroke-width="2.5" stroke-linecap="round" /><line x1="12.19" y1="12.11" x2="12.22" y2="12.16" stroke="#7c7c7c" stroke-width="2.5" stroke-linecap="round" /><line x1="12.22" y1="12.16" x2="12.24" y2="12.23" stroke="#7b7b7b" stroke-width="2.5" stroke-linecap="round" /><line x1="12.24" y1="12.23" x2="12.25" y2="12.30" stroke="#7a7a7a" stroke-width="2.5" stroke-linecap="round" /><line x1="12.25" y1="12.30" x2="12.24" y2="12.37" stroke="#7a7a7a" stroke-width="2.5" stroke-linecap="round" /><line x1="12.24" y1="12.37" x2="12.21" y2="12.45" stroke="#797979" stroke-width="2.5" stroke-linecap="round" /><line x1="12.21" y1="12.45" x2="12.17" y2="12.52" stroke="#777777" stroke-width="2.5" stroke-linecap="round" /><line x1="12.17" y1="12.52" x2="12.11" y2="12.59" stroke="#767676" stroke-width="2.5" stroke-linecap="round" /><line x1="12.11" y1="12.59" x2="12.04" y2="12.66" stroke="#757575" stroke-width="2.5" stroke-linecap="round" /><line x1="12.04" y1="12.66" x2="11.96" y2="12.71" stroke="#747474" stroke-width="2.5" stroke-linecap="round" /><line x1="11.96" y1="12.71" x2="11.86" y2="12.76" stroke="#737373" stroke-width="2.5" stroke-linecap="round" /><line x1="11.86" y1="12.76" x2="11.75" y2="12.78" stroke="#717171" stroke-width="2.5" stroke-linecap="round" /><line x1="11.75" y1="12.78" x2="11.63" y2="12.80" stroke="#707070" stroke-width="2.5" stroke-linecap="round" /><line x1="11.63" y1="12.80" x2="11.50" y2="12.79" stroke="#6e6e6e" stroke-width="2.5" stroke-linecap="round" /><line x1="11.50" y1="12.79" x2="11.37" y2="12.76" stroke="#6c6c6c" stroke-width="2.5" stroke-linecap="round" /><line x1="11.37" y1="12.76" x2="11.24" y2="12.72" stroke="#6b6b6b" stroke-width="2.5" stroke-linecap="round" /><line x1="11.24" y1="12.72" x2="11.11" y2="12.65" stroke="#696969" stroke-width="2.5" stroke-linecap="round" /><line x1="11.11" y1="12.65" x2="10.99" y2="12.56" stroke="#676767" stroke-width="2.5" stroke-linecap="round" /><line x1="10.99" y1="12.56" x2="10.87" y2="12.45" stroke="#656565" stroke-width="2.5" stroke-linecap="round" /><line x1="10.87" y1="12.45" x2="10.77" y2="12.31" stroke="#636363" stroke-width="2.5" stroke-linecap="round" /><line x1="10.77" y1="12.31" x2="10.69" y2="12.17" stroke="#616161" stroke-width="2.5" stroke-linecap="round" /><line x1="10.69" y1="12.17" x2="10.62" y2="12.00" stroke="#5e5e5e" stroke-width="2.5" stroke-linecap="round" /><line x1="10.62" y1="12.00" x2="10.58" y2="11.82" stroke="#5c5c5c" stroke-width="2.5" stroke-linecap="round" /><line x1="10.58" y1="11.82" x2="10.56" y2="11.63" stroke="#5a5a5a" stroke-width="2.5" stroke-linecap="round" /><line x1="10.56" y1="11.63" x2="10.57" y2="11.43" stroke="#575757" stroke-width="2.5" stroke-linecap="round" /><line x1="10.57" y1="11.43" x2="10.60" y2="11.23" stroke="#555555" stroke-width="2.5" stroke-linecap="round" /><line x1="10.60" y1="11.23" x2="10.67" y2="11.03" stroke="#525252" stroke-width="2.5" stroke-linecap="round" /><line x1="10.67" y1="11.03" x2="10.76" y2="10.83" stroke="#4f4f4f" stroke-width="2.5" stroke-linecap="round" /><line x1="10.76" y1="10.83" x2="10.88" y2="10.64" stroke="#4c4c4c" stroke-width="2.5" stroke-linecap="round" /><line x1="10.88" y1="10.64" x2="11.03" y2="10.47" stroke="#4a4a4a" stroke-width="2.5" stroke-linecap="round" /><line x1="11.03" y1="10.47" x2="11.20" y2="10.31" stroke="#474747" stroke-width="2.5" stroke-linecap="round" /><line x1="11.20" y1="10.31" x2="11.41" y2="10.17" stroke="#434343" stroke-width="2.5" stroke-linecap="round" /><line x1="11.41" y1="10.17" x2="11.63" y2="10.06" stroke="#404040" stroke-width="2.5" stroke-linecap="round" /><line x1="11.63" y1="10.06" x2="11.87" y2="9.97" stroke="#3d3d3d" stroke-width="2.5" stroke-linecap="round" /><line x1="11.87" y1="9.97" x2="12.13" y2="9.91" stroke="#3a3a3a" stroke-width="2.5" stroke-linecap="round" /><line x1="12.13" y1="9.91" x2="12.40" y2="9.89" stroke="#363636" stroke-width="2.5" stroke-linecap="round" /><line x1="12.40" y1="9.89" x2="12.68" y2="9.91" stroke="#333333" stroke-width="2.5" stroke-linecap="round" /><line x1="12.68" y1="9.91" x2="12.96" y2="9.96" stroke="#2f2f2f" stroke-width="2.5" stroke-linecap="round" /><line x1="12.96" y1="9.96" x2="13.24" y2="10.05" stroke="#2b2b2b" stroke-width="2.5" stroke-linecap="round" /><line x1="13.24" y1="10.05" x2="13.51" y2="10.18" stroke="#282828" stroke-width="2.5" stroke-linecap="round" /><line x1="13.51" y1="10.18" x2="13.76" y2="10.34" stroke="#242424" stroke-width="2.5" stroke-linecap="round" /><line x1="13.76" y1="10.34" x2="14.00" y2="10.55" stroke="#202020" stroke-width="2.5" stroke-linecap="round" /><line x1="14.00" y1="10.55" x2="14.22" y2="10.78" stroke="#1c1c1c" stroke-width="2.5" stroke-linecap="round" /><line x1="14.22" y1="10.78" x2="14.40" y2="11.05" stroke="#181818" stroke-width="2.5" stroke-linecap="round" /><line x1="14.40" y1="11.05" x2="14.56" y2="11.34" stroke="#131313" stroke-width="2.5" stroke-linecap="round" /><line x1="14.56" y1="11.34" x2="14.67" y2="11.66" stroke="#0f0f0f" stroke-width="2.5" stroke-linecap="round" /><line x1="14.67" y1="11.66" x2="14.75" y2="12.00" stroke="#0b0b0b" stroke-width="2.5" stroke-linecap="round" /><line x1="14.75" y1="12.00" x2="14.78" y2="12.35" stroke="#060606" stroke-width="2.5" stroke-linecap="round" /><line x1="14.78" y1="12.35" x2="14.77" y2="12.71" stroke="#020202" stroke-width="2.5" stroke-linecap="round" /><line x1="14.77" y1="12.71" x2="14.71" y2="13.07" stroke="#040404" stroke-width="2.5" stroke-linecap="round" /><line x1="14.71" y1="13.07" x2="14.60" y2="13.43" stroke="#0d0d0d" stroke-width="2.5" stroke-linecap="round" /><line x1="14.60" y1="13.43" x2="14.45" y2="13.78" stroke="#161616" stroke-width="2.5" stroke-linecap="round" /><line x1="14.45" y1="13.78" x2="14.25" y2="14.11" stroke="#1f1f1f" stroke-width="2.5" stroke-linecap="round" /><line x1="14.25" y1="14.11" x2="14.00" y2="14.42" stroke="#292929" stroke-width="2.5" stroke-linecap="round" /><line x1="14.00" y1="14.42" x2="13.71" y2="14.69" stroke="#323232" stroke-width="2.5" stroke-linecap="round" /><line x1="13.71" y1="14.69" x2="13.38" y2="14.94" stroke="#3c3c3c" stroke-width="2.5" stroke-linecap="round" /><line x1="13.38" y1="14.94" x2="13.02" y2="15.14" stroke="#464646" stroke-width="2.5" stroke-linecap="round" /><line x1="13.02" y1="15.14" x2="12.63" y2="15.30" stroke="#505050" stroke-width="2.5" stroke-linecap="round" /><line x1="12.63" y1="15.30" x2="12.21" y2="15.40" stroke="#5a5a5a" stroke-width="2.5" stroke-linecap="round" /><line x1="12.21" y1="15.40" x2="11.78" y2="15.46" stroke="#646464" stroke-width="2.5" stroke-linecap="round" /><line x1="11.78" y1="15.46" x2="11.34" y2="15.46" stroke="#6f6f6f" stroke-width="2.5" stroke-linecap="round" /><line x1="11.34" y1="15.46" x2="10.90" y2="15.40" stroke="#7a7a7a" stroke-width="2.5" stroke-linecap="round" /><line x1="10.90" y1="15.40" x2="10.45" y2="15.28" stroke="#848484" stroke-width="2.5" stroke-linecap="round" /><line x1="10.45" y1="15.28" x2="10.03" y2="15.11" stroke="#8f8f8f" stroke-width="2.5" stroke-linecap="round" /><line x1="10.03" y1="15.11" x2="9.62" y2="14.88" stroke="#9b9b9b" stroke-width="2.5" stroke-linecap="round" /><line x1="9.62" y1="14.88" x2="9.23" y2="14.60" stroke="#a6a6a6" stroke-width="2.5" stroke-linecap="round" /><line x1="9.23" y1="14.60" x2="8.89" y2="14.26" stroke="#b1b1b1" stroke-width="2.5" stroke-linecap="round" /><line x1="8.89" y1="14.26" x2="8.58" y2="13.88" stroke="#bdbdbd" stroke-width="2.5" stroke-linecap="round" /><line x1="8.58" y1="13.88" x2="8.32" y2="13.46" stroke="#c9c9c9" stroke-width="2.5" stroke-linecap="round" /><line x1="8.32" y1="13.46" x2="8.11" y2="13.00" stroke="#d5d5d5" stroke-width="2.5" stroke-linecap="round" /><line x1="8.11" y1="13.00" x2="7.96" y2="12.51" stroke="#e1e1e1" stroke-width="2.5" stroke-linecap="round" /><line x1="7.96" y1="12.51" x2="7.88" y2="12.00" stroke="#eeeeee" stroke-width="2.5" stroke-linecap="round" /><line x1="7.88" y1="12.00" x2="7.85" y2="11.48" stroke="#ebebeb" stroke-width="2.5" stroke-linecap="round" /><line x1="7.85" y1="11.48" x2="7.90" y2="10.95" stroke="#e5e5e5" stroke-width="2.5" stroke-linecap="round" /><line x1="7.90" y1="10.95" x2="8.01" y2="10.42" stroke="#dfdfdf" stroke-width="2.5" stroke-linecap="round" /><line x1="8.01" y1="10.42" x2="8.19" y2="9.91" stroke="#d9d9d9" stroke-width="2.5" stroke-linecap="round" /><line x1="8.19" y1="9.91" x2="8.44" y2="9.41" stroke="#d2d2d2" stroke-width="2.5" stroke-linecap="round" /><line x1="8.44" y1="9.41" x2="8.75" y2="8.95" stroke="#cccccc" stroke-width="2.5" stroke-linecap="round" /><line x1="8.75" y1="8.95" x2="9.13" y2="8.52" stroke="#c6c6c6" stroke-width="2.5" stroke-linecap="round" /><line x1="9.13" y1="8.52" x2="9.55" y2="8.15" stroke="#c0c0c0" stroke-width="2.5" stroke-linecap="round" /><line x1="9.55" y1="8.15" x2="10.03" y2="7.82" stroke="#b9b9b9" stroke-width="2.5" stroke-linecap="round" /><line x1="10.03" y1="7.82" x2="10.56" y2="7.55" stroke="#b3b3b3" stroke-width="2.5" stroke-linecap="round" /><line x1="10.56" y1="7.55" x2="11.11" y2="7.35" stroke="#acacac" stroke-width="2.5" stroke-linecap="round" /><line x1="11.11" y1="7.35" x2="11.70" y2="7.22" stroke="#a5a5a5" stroke-width="2.5" stroke-linecap="round" /><line x1="11.70" y1="7.22" x2="12.30" y2="7.17" stroke="#9f9f9f" stroke-width="2.5" stroke-linecap="round" /><line x1="12.30" y1="7.17" x2="12.92" y2="7.19" stroke="#989898" stroke-width="2.5" stroke-linecap="round" /><line x1="12.92" y1="7.19" x2="13.53" y2="7.29" stroke="#919191" stroke-width="2.5" stroke-linecap="round" /><line x1="13.53" y1="7.29" x2="14.13" y2="7.47" stroke="#8a8a8a" stroke-width="2.5" stroke-linecap="round" /><line x1="14.13" y1="7.47" x2="14.71" y2="7.73" stroke="#838383" stroke-width="2.5" stroke-linecap="round" /><line x1="14.71" y1="7.73" x2="15.26" y2="8.06" stroke="#7b7b7b" stroke-width="2.5" stroke-linecap="round" /><line x1="15.26" y1="8.06" x2="15.77" y2="8.46" stroke="#737373" stroke-width="2.5" stroke-linecap="round" /><line x1="15.77" y1="8.46" x2="16.23" y2="8.93" stroke="#6a6a6a" stroke-width="2.5" stroke-linecap="round" /><line x1="16.23" y1="8.93" x2="16.63" y2="9.46" stroke="#626262" stroke-width="2.5" stroke-linecap="round" /><line x1="16.63" y1="9.46" x2="16.96" y2="10.04" stroke="#5a5a5a" stroke-width="2.5" stroke-linecap="round" /><line x1="16.96" y1="10.04" x2="17.22" y2="10.66" stroke="#515151" stroke-width="2.5" stroke-linecap="round" /><line x1="17.22" y1="10.66" x2="17.40" y2="11.32" stroke="#484848" stroke-width="2.5" stroke-linecap="round" /><line x1="17.40" y1="11.32" x2="17.50" y2="12.00" stroke="#3f3f3f" stroke-width="2.5" stroke-linecap="round" /><line x1="17.50" y1="12.00" x2="17.51" y2="12.70" stroke="#373737" stroke-width="2.5" stroke-linecap="round" /><line x1="17.51" y1="12.70" x2="17.43" y2="13.40" stroke="#2e2e2e" stroke-width="2.5" stroke-linecap="round" /><line x1="17.43" y1="13.40" x2="17.27" y2="14.09" stroke="#252525" stroke-width="2.5" stroke-linecap="round" /><line x1="17.27" y1="14.09" x2="17.01" y2="14.76" stroke="#1b1b1b" stroke-width="2.5" stroke-linecap="round" /><line x1="17.01" y1="14.76" x2="16.67" y2="15.39" stroke="#121212" stroke-width="2.5" stroke-linecap="round" /><line x1="16.67" y1="15.39" x2="16.25" y2="15.99" stroke="#090909" stroke-width="2.5" stroke-linecap="round" /><line x1="16.25" y1="15.99" x2="15.75" y2="16.53" stroke="#000000" stroke-width="2.5" stroke-linecap="round" /><line x1="15.75" y1="16.53" x2="15.18" y2="17.02" stroke="#111111" stroke-width="2.5" stroke-linecap="round" /><line x1="15.18" y1="17.02" x2="14.55" y2="17.42" stroke="#232323" stroke-width="2.5" stroke-linecap="round" /><line x1="14.55" y1="17.42" x2="13.87" y2="17.75" stroke="#353535" stroke-width="2.5" stroke-linecap="round" /><line x1="13.87" y1="17.75" x2="13.14" y2="18.00" stroke="#484848" stroke-width="2.5" stroke-linecap="round" /><line x1="13.14" y1="18.00" x2="12.39" y2="18.15" stroke="#5a5a5a" stroke-width="2.5" stroke-linecap="round" /><line x1="12.39" y1="18.15" x2="11.61" y2="18.20" stroke="#6d6d6d" stroke-width="2.5" stroke-linecap="round" /><line x1="11.61" y1="18.20" x2="10.83" y2="18.16" stroke="#7f7f7f" stroke-width="2.5" stroke-linecap="round" /><line x1="10.83" y1="18.16" x2="10.05" y2="18.02" stroke="#929292" stroke-width="2.5" stroke-linecap="round" /><line x1="10.05" y1="18.02" x2="9.28" y2="17.77" stroke="#a5a5a5" stroke-width="2.5" stroke-linecap="round" /><line x1="9.28" y1="17.77" x2="8.55" y2="17.43" stroke="#b9b9b9" stroke-width="2.5" stroke-linecap="round" /><line x1="8.55" y1="17.43" x2="7.86" y2="17.00" stroke="#cccccc" stroke-width="2.5" stroke-linecap="round" /><line x1="7.86" y1="17.00" x2="7.23" y2="16.48" stroke="#e0e0e0" stroke-width="2.5" stroke-linecap="round" /><line x1="7.23" y1="16.48" x2="6.66" y2="15.88" stroke="#eeeeee" stroke-width="2.5" stroke-linecap="round" /><line x1="6.66" y1="15.88" x2="6.17" y2="15.21" stroke="#e4e4e4" stroke-width="2.5" stroke-linecap="round" /><line x1="6.17" y1="15.21" x2="5.76" y2="14.47" stroke="#dbdbdb" stroke-width="2.5" stroke-linecap="round" /><line x1="5.76" y1="14.47" x2="5.45" y2="13.68" stroke="#d1d1d1" stroke-width="2.5" stroke-linecap="round" /><line x1="5.45" y1="13.68" x2="5.23" y2="12.85" stroke="#c8c8c8" stroke-width="2.5" stroke-linecap="round" /><line x1="5.23" y1="12.85" x2="5.12" y2="12.00" stroke="#bebebe" stroke-width="2.5" stroke-linecap="round" /><line x1="5.12" y1="12.00" x2="5.12" y2="11.13" stroke="#b5b5b5" stroke-width="2.5" stroke-linecap="round" /><line x1="5.12" y1="11.13" x2="5.23" y2="10.26" stroke="#ababab" stroke-width="2.5" stroke-linecap="round" /><line x1="5.23" y1="10.26" x2="5.45" y2="9.41" stroke="#a1a1a1" stroke-width="2.5" stroke-linecap="round" /><line x1="5.45" y1="9.41" x2="5.78" y2="8.58" stroke="#979797" stroke-width="2.5" stroke-linecap="round" /><line x1="5.78" y1="8.58" x2="6.22" y2="7.80" stroke="#8d8d8d" stroke-width="2.5" stroke-linecap="round" /><line x1="6.22" y1="7.80" x2="6.75" y2="7.07" stroke="#838383" stroke-width="2.5" stroke-linecap="round" /><line x1="6.75" y1="7.07" x2="7.37" y2="6.41" stroke="#787878" stroke-width="2.5" stroke-linecap="round" /><line x1="7.37" y1="6.41" x2="8.08" y2="5.82" stroke="#6c6c6c" stroke-width="2.5" stroke-linecap="round" /><line x1="8.08" y1="5.82" x2="8.86" y2="5.33" stroke="#606060" stroke-width="2.5" stroke-linecap="round" /><line x1="8.86" y1="5.33" x2="9.71" y2="4.94" stroke="#555555" stroke-width="2.5" stroke-linecap="round" /><line x1="9.71" y1="4.94" x2="10.60" y2="4.65" stroke="#494949" stroke-width="2.5" stroke-linecap="round" /><line x1="10.60" y1="4.65" x2="11.53" y2="4.48" stroke="#3d3d3d" stroke-width="2.5" stroke-linecap="round" /><line x1="11.53" y1="4.48" x2="12.48" y2="4.42" stroke="#303030" stroke-width="2.5" stroke-linecap="round" /><line x1="12.48" y1="4.42" x2="13.43" y2="4.49" stroke="#242424" stroke-width="2.5" stroke-linecap="round" /><line x1="13.43" y1="4.49" x2="14.38" y2="4.68" stroke="#181818" stroke-width="2.5" stroke-linecap="round" /><line x1="14.38" y1="4.68" x2="15.30" y2="4.98" stroke="#0c0c0c" stroke-width="2.5" stroke-linecap="round" /><line x1="15.30" y1="4.98" x2="16.18" y2="5.41" stroke="#000000" stroke-width="2.5" stroke-linecap="round" /><line x1="16.18" y1="5.41" x2="17.01" y2="5.94" stroke="#181818" stroke-width="2.5" stroke-linecap="round" /><line x1="17.01" y1="5.94" x2="17.77" y2="6.58" stroke="#303030" stroke-width="2.5" stroke-linecap="round" /><line x1="17.77" y1="6.58" x2="18.45" y2="7.31" stroke="#484848" stroke-width="2.5" stroke-linecap="round" /><line x1="18.45" y1="7.31" x2="19.04" y2="8.13" stroke="#606060" stroke-width="2.5" stroke-linecap="round" /><line x1="19.04" y1="8.13" x2="19.52" y2="9.02" stroke="#787878" stroke-width="2.5" stroke-linecap="round" /><line x1="19.52" y1="9.02" x2="19.88" y2="9.98" stroke="#909090" stroke-width="2.5" stroke-linecap="round" /><line x1="19.88" y1="9.98" x2="20.13" y2="10.97" stroke="#a9a9a9" stroke-width="2.5" stroke-linecap="round" /><line x1="20.13" y1="10.97" x2="20.25" y2="12.00" stroke="#c2c2c2" stroke-width="2.5" stroke-linecap="round" /><line x1="20.25" y1="12.00" x2="20.24" y2="13.04" stroke="#dadada" stroke-width="2.5" stroke-linecap="round" /><line x1="20.24" y1="13.04" x2="20.10" y2="14.08" stroke="#eeeeee" stroke-width="2.5" stroke-linecap="round" /><line x1="20.10" y1="14.08" x2="19.82" y2="15.10" stroke="#e2e2e2" stroke-width="2.5" stroke-linecap="round" /><line x1="19.82" y1="15.10" x2="19.42" y2="16.08" stroke="#d6d6d6" stroke-width="2.5" stroke-linecap="round" /><line x1="19.42" y1="16.08" x2="18.90" y2="17.01" stroke="#cacaca" stroke-width="2.5" stroke-linecap="round" /><line x1="18.90" y1="17.01" x2="18.25" y2="17.87" stroke="#bebebe" stroke-width="2.5" stroke-linecap="round" /><line x1="18.25" y1="17.87" x2="17.50" y2="18.65" stroke="#b2b2b2" stroke-width="2.5" stroke-linecap="round" /><line x1="17.50" y1="18.65" x2="16.66" y2="19.34" stroke="#a6a6a6" stroke-width="2.5" stroke-linecap="round" /><line x1="16.66" y1="19.34" x2="15.72" y2="19.91" stroke="#9a9a9a" stroke-width="2.5" stroke-linecap="round" /><line x1="15.72" y1="19.91" x2="14.72" y2="20.37" stroke="#8d8d8d" stroke-width="2.5" stroke-linecap="round" /><line x1="14.72" y1="20.37" x2="13.66" y2="20.70" stroke="#818181" stroke-width="2.5" stroke-linecap="round" /><line x1="13.66" y1="20.70" x2="12.56" y2="20.89" stroke="#737373" stroke-width="2.5" stroke-linecap="round" /><line x1="12.56" y1="20.89" x2="11.44" y2="20.95" stroke="#646464" stroke-width="2.5" stroke-linecap="round" /><line x1="11.44" y1="20.95" x2="10.31" y2="20.86" stroke="#565656" stroke-width="2.5" stroke-linecap="round" /><line x1="10.31" y1="20.86" x2="9.20" y2="20.63" stroke="#484848" stroke-width="2.5" stroke-linecap="round" /><line x1="9.20" y1="20.63" x2="8.11" y2="20.26" stroke="#393939" stroke-width="2.5" stroke-linecap="round" /><line x1="8.11" y1="20.26" x2="7.08" y2="19.76" stroke="#2a2a2a" stroke-width="2.5" stroke-linecap="round" /><line x1="7.08" y1="19.76" x2="6.11" y2="19.12" stroke="#1b1b1b" stroke-width="2.5" stroke-linecap="round" /><line x1="6.11" y1="19.12" x2="5.22" y2="18.36" stroke="#0d0d0d" stroke-width="2.5" stroke-linecap="round" /><line x1="5.22" y1="18.36" x2="4.44" y2="17.50" stroke="#030303" stroke-width="2.5" stroke-linecap="round" /><line x1="4.44" y1="17.50" x2="3.76" y2="16.53" stroke="#1f1f1f" stroke-width="2.5" stroke-linecap="round" /><line x1="3.76" y1="16.53" x2="3.20" y2="15.48" stroke="#3c3c3c" stroke-width="2.5" stroke-linecap="round" /><line x1="3.20" y1="15.48" x2="2.78" y2="14.37" stroke="#585858" stroke-width="2.5" stroke-linecap="round" /><line x1="2.78" y1="14.37" x2="2.51" y2="13.20" stroke="#757575" stroke-width="2.5" stroke-linecap="round" /><line x1="2.51" y1="13.20" x2="2.38" y2="12.00" stroke="#929292" stroke-width="2.5" stroke-linecap="round" /><line x1="2.38" y1="12.00" x2="2.40" y2="10.79" stroke="#afafaf" stroke-width="2.5" stroke-linecap="round" /><line x1="2.40" y1="10.79" x2="2.57" y2="9.58" stroke="#cccccc" stroke-width="2.5" stroke-linecap="round" /><line x1="2.57" y1="9.58" x2="2.90" y2="8.40" stroke="#e9e9e9" stroke-width="2.5" stroke-linecap="round" /><line x1="2.90" y1="8.40" x2="3.37" y2="7.26" stroke="#e5e5e5" stroke-width="2.5" stroke-linecap="round" /><line x1="3.37" y1="7.26" x2="3.99" y2="6.18" stroke="#d7d7d7" stroke-width="2.5" stroke-linecap="round" /><line x1="3.99" y1="6.18" x2="4.74" y2="5.19" stroke="#c9c9c9" stroke-width="2.5" stroke-linecap="round" /><line x1="4.74" y1="5.19" x2="5.62" y2="4.29" stroke="#bbbbbb" stroke-width="2.5" stroke-linecap="round" /><line x1="5.62" y1="4.29" x2="6.61" y2="3.50" stroke="#adadad" stroke-width="2.5" stroke-linecap="round" /><line x1="6.61" y1="3.50" x2="7.69" y2="2.84" stroke="#9f9f9f" stroke-width="2.5" stroke-linecap="round" /><line x1="7.69" y1="2.84" x2="8.86" y2="2.32" stroke="#909090" stroke-width="2.5" stroke-linecap="round" /><line x1="8.86" y1="2.32" x2="10.08" y2="1.95" stroke="#828282" stroke-width="2.5" stroke-linecap="round" /><line x1="10.08" y1="1.95" x2="11.35" y2="1.74" stroke="#727272" stroke-width="2.5" stroke-linecap="round" /><line x1="11.35" y1="1.74" x2="12.65" y2="1.68" stroke="#616161" stroke-width="2.5" stroke-linecap="round" /><line x1="12.65" y1="1.68" x2="13.95" y2="1.79" stroke="#515151" stroke-width="2.5" stroke-linecap="round" /><line x1="13.95" y1="1.79" x2="15.23" y2="2.06" stroke="#404040" stroke-width="2.5" stroke-linecap="round" /><line x1="15.23" y1="2.06" x2="16.47" y2="2.49" stroke="#2f2f2f" stroke-width="2.5" stroke-linecap="round" /><line x1="16.47" y1="2.49" x2="17.66" y2="3.08" stroke="#1e1e1e" stroke-width="2.5" stroke-linecap="round" /><line x1="17.66" y1="3.08" x2="18.77" y2="3.82" stroke="#0d0d0d" stroke-width="2.5" stroke-linecap="round" /><line x1="18.77" y1="3.82" x2="19.78" y2="4.70" stroke="#060606" stroke-width="2.5" stroke-linecap="round" /><line x1="19.78" y1="4.70" x2="20.68" y2="5.70" stroke="#262626" stroke-width="2.5" stroke-linecap="round" /><line x1="20.68" y1="5.70" x2="21.45" y2="6.81" stroke="#464646" stroke-width="2.5" stroke-linecap="round" /><line x1="21.45" y1="6.81" x2="22.07" y2="8.01" stroke="#676767" stroke-width="2.5" stroke-linecap="round" /><line x1="22.07" y1="8.01" x2="22.55" y2="9.29" stroke="#888888" stroke-width="2.5" stroke-linecap="round" /><line x1="22.55" y1="9.29" x2="22.86" y2="10.63" stroke="#a8a8a8" stroke-width="2.5" stroke-linecap="round" /><line x1="22.86" y1="10.63" x2="23.00" y2="12.00" stroke="#c9c9c9" stroke-width="2.5" stroke-linecap="round" /></svg>