<svg xmlns="http://www.w3.org/2000/svg" width="200" height="200" viewBox="0 0 24 24">
<line x1="12.00" y1="12.00" x2="12.05" y2="12.00" stroke="#7f7f7f" stroke-width="2" stroke-linecap="round" /><line x1="12.05" y1="12.00" x2="12.10" y2="12.02" stroke="#7f7f7f" stroke-width="2" stroke-linecap="round" /><line x1="12.10" y1="12.02" x2="12.14" y2="12.04" stroke="#7e7e7e" stroke-width="2" stroke-linecap="round" /><line x1="12.14" y1="12.04" x2="12.19" y2="12.07" stroke="#7d7d7d" stroke-width="2" stroke-linecap="round" /><line x1="12.19" y1="12.07" x2="12.22" y2="12.11" stroke="#7d7d7d" stroke-width="2" stroke-linecap="round" /><line x1="12.22" y1="12.11" x2="12.25" y2="12.16" stroke="#7c7c7c" stroke-width="2" stroke-linecap="round" /><line x1="12.25" y1="12.16" x2="12.28" y2="12.21" stroke="#7b7b7b" stroke-width="2" stroke-linecap="round" /><line x1="12.28" y1="12.21" x2="12.29" y2="12.27" stroke="#7a7a7a" stroke-width="2" stroke-linecap="round" /><line x1="12.29" y1="12.27" x2="12.30" y2="12.34" stroke="#7a7a7a" stroke-width="2" stroke-linecap="round" /><line x1="12.30" y1="12.34" x2="12.29" y2="12.40" stroke="#797979" stroke-width="2" stroke-linecap="round" /><line x1="12.29" y1="12.40" x2="12.28" y2="12.47" stroke="#787878" stroke-width="2" stroke-linecap="round" /><line x1="12.28" y1="12.47" x2="12.26" y2="12.54" stroke="#777777" stroke-width="2" stroke-linecap="round" /><line x1="12.26" y1="12.54" x2="12.22" y2="12.61" stroke="#767676" stroke-width="2" stroke-linecap="round" /><line x1="12.22" y1="12.61" x2="12.17" y2="12.68" stroke="#757575" stroke-width="2" stroke-linecap="round" /><line x1="12.17" y1="12.68" x2="12.12" y2="12.74" stroke="#747474" stroke-width="2" stroke-linecap="round" /><line x1="12.12" y1="12.74" x2="12.05" y2="12.80" stroke="#737373" stroke-width="2" stroke-linecap="round" /><line x1="12.05" y1="12.80" x2="11.97" y2="12.85" stroke="#727272" stroke-width="2" stroke-linecap="round" /><line x1="11.97" y1="12.85" x2="11.89" y2="12.89" stroke="#707070" stroke-width="2" stroke-linecap="round" /><line x1="11.89" y1="12.89" x2="11.79" y2="12.93" stroke="#6f6f6f" stroke-width="2" stroke-linecap="round" /><line x1="11.79" y1="12.93" x2="11.69" y2="12.95" stroke="#6e6e6e" stroke-width="2" stroke-linecap="round" /><line x1="11.69" y1="12.95" x2="11.58" y2="12.96" stroke="#6c6c6c" stroke-width="2" stroke-linecap="round" /><line x1="11.58" y1="12.96" x2="11.47" y2="12.96" stroke="#6b6b6b" stroke-width="2" stroke-linecap="round" /><line x1="11.47" y1="12.96" x2="11.35" y2="12.95" stroke="#6a6a6a" stroke-width="2" stroke-linecap="round" /><line x1="11.35" y1="12.95" x2="11.24" y2="12.92" stroke="#686868" stroke-width="2" stroke-linecap="round" /><line x1="11.24" y1="12.92" x2="11.12" y2="12.88" stroke="#666666" stroke-width="2" stroke-linecap="round" /><line x1="11.12" y1="12.88" x2="11.00" y2="12.83" stroke="#656565" stroke-width="2" stroke-linecap="round" /><line x1="11.00" y1="12.83" x2="10.88" y2="12.76" stroke="#636363" stroke-width="2" stroke-linecap="round" /><line x1="10.88" y1="12.76" x2="10.77" y2="12.67" stroke="#616161" stroke-width="2" stroke-linecap="round" /><line x1="10.77" y1="12.67" x2="10.67" y2="12.58" stroke="#606060" stroke-width="2" stroke-linecap="round" /><line x1="10.67" y1="12.58" x2="10.57" y2="12.46" stroke="#5e5e5e" stroke-width="2" stroke-linecap="round" /><line x1="10.57" y1="12.46" x2="10.49" y2="12.34" stroke="#5c5c5c" stroke-width="2" stroke-linecap="round" /><line x1="10.49" y1="12.34" x2="10.41" y2="12.20" stroke="#5a5a5a" stroke-width="2" stroke-linecap="round" /><line x1="10.41" y1="12.20" x2="10.35" y2="12.05" stroke="#585858" stroke-width="2" stroke-linecap="round" /><line x1="10.35" y1="12.05" x2="10.30" y2="11.89" stroke="#565656" stroke-width="2" stroke-linecap="round" /><line x1="10.30" y1="11.89" x2="10.27" y2="11.73" stroke="#545454" stroke-width="2" stroke-linecap="round" /><line x1="10.27" y1="11.73" x2="10.26" y2="11.55" stroke="#515151" stroke-width="2" stroke-linecap="round" /><line x1="10.26" y1="11.55" x2="10.26" y2="11.37" stroke="#4f4f4f" stroke-width="2" stroke-linecap="round" /><line x1="10.26" y1="11.37" x2="10.28" y2="11.19" stroke="#4d4d4d" stroke-width="2" stroke-linecap="round" /><line x1="10.28" y1="11.19" x2="10.32" y2="11.01" stroke="#4a4a4a" stroke-width="2" stroke-linecap="round" /><line x1="10.32" y1="11.01" x2="10.38" y2="10.82" stroke="#484848" stroke-width="2" stroke-linecap="round" /><line x1="10.38" y1="10.82" x2="10.46" y2="10.64" stroke="#454545" stroke-width="2" stroke-linecap="round" /><line x1="10.46" y1="10.64" x2="10.56" y2="10.47" stroke="#434343" stroke-width="2" stroke-linecap="round" /><line x1="10.56" y1="10.47" x2="10.68" y2="10.30" stroke="#404040" stroke-width="2" stroke-linecap="round" /><line x1="10.68" y1="10.30" x2="10.82" y2="10.14" stroke="#3e3e3e" stroke-width="2" stroke-linecap="round" /><line x1="10.82" y1="10.14" x2="10.98" y2="10.00" stroke="#3b3b3b" stroke-width="2" stroke-linecap="round" /><line x1="10.98" y1="10.00" x2="11.15" y2="9.86" stroke="#383838" stroke-width="2" stroke-linecap="round" /><line x1="11.15" y1="9.86" x2="11.34" y2="9.74" stroke="#353535" stroke-width="2" stroke-linecap="round" /><line x1="11.34" y1="9.74" x2="11.55" y2="9.64" stroke="#323232" stroke-width="2" stroke-linecap="round" /><line x1="11.55" y1="9.64" x2="11.77" y2="9.56" stroke="#2f2f2f" stroke-width="2" stroke-linecap="round" /><line x1="11.77" y1="9.56" x2="12.00" y2="9.50" stroke="#2c2c2c" stroke-width="2" stroke-linecap="round" /><line x1="12.00" y1="9.50" x2="12.24" y2="9.46" stroke="#292929" stroke-width="2" stroke-linecap="round" /><line x1="12.24" y1="9.46" x2="12.49" y2="9.45" stroke="#262626" stroke-width="2" stroke-linecap="round" /><line x1="12.49" y1="9.45" x2="12.74" y2="9.46" stroke="#232323" stroke-width="2" stroke-linecap="round" /><line x1="12.74" y1="9.46" x2="12.99" y2="9.49" stroke="#202020" stroke-width="2" stroke-linecap="round" /><line x1="12.99" y1="9.49" x2="13.25" y2="9.55" stroke="#1c1c1c" stroke-width="2" stroke-linecap="round" /><line x1="13.25" y1="9.55" x2="13.50" y2="9.64" stroke="#191919" stroke-width="2" stroke-linecap="round" /><line x1="13.50" y1="9.64" x2="13.75" y2="9.75" stroke="#161616" stroke-width="2" stroke-linecap="round" /><line x1="13.75" y1="9.75" x2="13.99" y2="9.89" stroke="#121212" stroke-width="2" stroke-linecap="round" /><line x1="13.99" y1="9.89" x2="14.21" y2="10.05" stroke="#0e0e0e" stroke-width="2" stroke-linecap="round" /><line x1="14.21" y1="10.05" x2="14.43" y2="10.24" stroke="#0b0b0b" stroke-width="2" stroke-linecap="round" /><line x1="14.43" y1="10.24" x2="14.63" y2="10.45" stroke="#070707" stroke-width="2" stroke-linecap="round" /><line x1="14.63" y1="10.45" x2="14.80" y2="10.68" stroke="#030303" stroke-width="2" stroke-linecap="round" /><line x1="14.80" y1="10.68" x2="14.96" y2="10.93" stroke="#000000" stroke-width="2" stroke-linecap="round" /><line x1="14.96" y1="10.93" x2="15.10" y2="11.20" stroke="#060606" stroke-width="2" stroke-linecap="round" /><line x1="15.10" y1="11.20" x2="15.21" y2="11.49" stroke="#0e0e0e" stroke-width="2" stroke-linecap="round" /><line x1="15.21" y1="11.49" x2="15.29" y2="11.79" stroke="#151515" stroke-width="2" stroke-linecap="round" /><line x1="15.29" y1="11.79" x2="15.35" y2="12.11" stroke="#1d1d1d" stroke-width="2" stroke-linecap="round" /><line x1="15.35" y1="12.11" x2="15.37" y2="12.43" stroke="#242424" stroke-width="2" stroke-linecap="round" /><line x1="15.37" y1="12.43" x2="15.37" y2="12.75" stroke="#2c2c2c" stroke-width="2" stroke-linecap="round" /><line x1="15.37" y1="12.75" x2="15.33" y2="13.08" stroke="#343434" stroke-width="2" stroke-linecap="round" /><line x1="15.33" y1="13.08" x2="15.26" y2="13.41" stroke="#3c3c3c" stroke-width="2" stroke-linecap="round" /><line x1="15.26" y1="13.41" x2="15.15" y2="13.73" stroke="#444444" stroke-width="2" stroke-linecap="round" /><line x1="15.15" y1="13.73" x2="15.02" y2="14.05" stroke="#4c4c4c" stroke-width="2" stroke-linecap="round" /><line x1="15.02" y1="14.05" x2="14.85" y2="14.36" stroke="#555555" stroke-width="2" stroke-linecap="round" /><line x1="14.85" y1="14.36" x2="14.65" y2="14.65" stroke="#5d5d5d" stroke-width="2" stroke-linecap="round" /><line x1="14.65" y1="14.65" x2="14.42" y2="14.93" stroke="#666666" stroke-width="2" stroke-linecap="round" /><line x1="14.42" y1="14.93" x2="14.16" y2="15.18" stroke="#6e6e6e" stroke-width="2" stroke-linecap="round" /><line x1="14.16" y1="15.18" x2="13.88" y2="15.42" stroke="#777777" stroke-width="2" stroke-linecap="round" /><line x1="13.88" y1="15.42" x2="13.57" y2="15.63" stroke="#808080" stroke-width="2" stroke-linecap="round" /><line x1="13.57" y1="15.63" x2="13.24" y2="15.80" stroke="#898989" stroke-width="2" stroke-linecap="round" /><line x1="13.24" y1="15.80" x2="12.88" y2="15.95" stroke="#929292" stroke-width="2" stroke-linecap="round" /><line x1="12.88" y1="15.95" x2="12.51" y2="16.07" stroke="#9c9c9c" stroke-width="2" stroke-linecap="round" /><line x1="12.51" y1="16.07" x2="12.13" y2="16.15" stroke="#a5a5a5" stroke-width="2" stroke-linecap="round" /><line x1="12.13" y1="16.15" x2="11.74" y2="16.19" stroke="#aeaeae" stroke-width="2" stroke-linecap="round" /><line x1="11.74" y1="16.19" x2="11.34" y2="16.20" stroke="#b8b8b8" stroke-width="2" stroke-linecap="round" /><line x1="11.34" y1="16.20" x2="10.93" y2="16.16" stroke="#c2c2c2" stroke-width="2" stroke-linecap="round" /><line x1="10.93" y1="16.16" x2="10.53" y2="16.09" stroke="#cbcbcb" stroke-width="2" stroke-linecap="round" /><line x1="10.53" y1="16.09" x2="10.13" y2="15.98" stroke="#d5d5d5" stroke-width="2" stroke-linecap="round" /><line x1="10.13" y1="15.98" x2="9.73" y2="15.83" stroke="#dfdfdf" stroke-width="2" stroke-linecap="round" /><line x1="9.73" y1="15.83" x2="9.35" y2="15.64" stroke="#e9e9e9" stroke-width="2" stroke-linecap="round" /><line x1="9.35" y1="15.64" x2="8.99" y2="15.41" stroke="#eeeeee" stroke-width="2" stroke-linecap="round" /><line x1="8.99" y1="15.41" x2="8.65" y2="15.15" stroke="#e9e9e9" stroke-width="2" stroke-linecap="round" /><line x1="8.65" y1="15.15" x2="8.33" y2="14.85" stroke="#e4e4e4" stroke-width="2" stroke-linecap="round" /><line x1="8.33" y1="14.85" x2="8.03" y2="14.52" stroke="#dfdfdf" stroke-width="2" stroke-linecap="round" /><line x1="8.03" y1="14.52" x2="7.77" y2="14.16" stroke="#dadada" stroke-width="2" stroke-linecap="round" /><line x1="7.77" y1="14.16" x2="7.54" y2="13.77" stroke="#d5d5d5" stroke-width="2" stroke-linecap="round" /><line x1="7.54" y1="13.77" x2="7.34" y2="13.35" stroke="#d0d0d0" stroke-width="2" stroke-linecap="round" /><line x1="7.34" y1="13.35" x2="7.19" y2="12.92" stroke="#cbcbcb" stroke-width="2" stroke-linecap="round" /><line x1="7.19" y1="12.92" x2="7.07" y2="12.47" stroke="#c5c5c5" stroke-width="2" stroke-linecap="round" /><line x1="7.07" y1="12.47" x2="7.00" y2="12.00" stroke="#c0c0c0" stroke-width="2" stroke-linecap="round" /><line x1="7.00" y1="12.00" x2="6.97" y2="11.52" stroke="#bbbbbb" stroke-width="2" stroke-linecap="round" /><line x1="6.97" y1="11.52" x2="6.99" y2="11.04" stroke="#b5b5b5" stroke-width="2" stroke-linecap="round" /><line x1="6.99" y1="11.04" x2="7.05" y2="10.56" stroke="#b0b0b0" stroke-width="2" stroke-linecap="round" /><line x1="7.05" y1="10.56" x2="7.17" y2="10.09" stroke="#ababab" stroke-width="2" stroke-linecap="round" /><line x1="7.17" y1="10.09" x2="7.32" y2="9.62" stroke="#a5a5a5" stroke-width="2" stroke-linecap="round" /><line x1="7.32" y1="9.62" x2="7.53" y2="9.16" stroke="#a0a0a0" stroke-width="2" stroke-linecap="round" /><line x1="7.53" y1="9.16" x2="7.77" y2="8.72" stroke="#9a9a9a" stroke-width="2" stroke-linecap="round" /><line x1="7.77" y1="8.72" x2="8.06" y2="8.30" stroke="#949494" stroke-width="2" stroke-linecap="round" /><line x1="8.06" y1="8.30" x2="8.40" y2="7.91" stroke="#8f8f8f" stroke-width="2" stroke-linecap="round" /><line x1="8.40" y1="7.91" x2="8.77" y2="7.55" stroke="#898989" stroke-width="2" stroke-linecap="round" /><line x1="8.77" y1="7.55" x2="9.17" y2="7.22" stroke="#838383" stroke-width="2" stroke-linecap="round" /><line x1="9.17" y1="7.22" x2="9.62" y2="6.93" stroke="#7d7d7d" stroke-width="2" stroke-linecap="round" /><line x1="9.62" y1="6.93" x2="10.09" y2="6.68" stroke="#767676" stroke-width="2" stroke-linecap="round" /><line x1="10.09" y1="6.68" x2="10.58" y2="6.48" stroke="#6f6f6f" stroke-width="2" stroke-linecap="round" /><line x1="10.58" y1="6.48" x2="11.10" y2="6.32" stroke="#686868" stroke-width="2" stroke-linecap="round" /><line x1="11.10" y1="6.32" x2="11.64" y2="6.21" stroke="#616161" stroke-width="2" stroke-linecap="round" /><line x1="11.64" y1="6.21" x2="12.18" y2="6.15" stroke="#5a5a5a" stroke-width="2" stroke-linecap="round" /><line x1="12.18" y1="6.15" x2="12.74" y2="6.15" stroke="#535353" stroke-width="2" stroke-linecap="round" /><line x1="12.74" y1="6.15" x2="13.30" y2="6.19" stroke="#4c4c4c" stroke-width="2" stroke-linecap="round" /><line x1="13.30" y1="6.19" x2="13.85" y2="6.29" stroke="#454545" stroke-width="2" stroke-linecap="round" /><line x1="13.85" y1="6.29" x2="14.40" y2="6.45" stroke="#3d3d3d" stroke-width="2" stroke-linecap="round" /><line x1="14.40" y1="6.45" x2="14.94" y2="6.65" stroke="#363636" stroke-width="2" stroke-linecap="round" /><line x1="14.94" y1="6.65" x2="15.46" y2="6.91" stroke="#2f2f2f" stroke-width="2" stroke-linecap="round" /><line x1="15.46" y1="6.91" x2="15.95" y2="7.22" stroke="#272727" stroke-width="2" stroke-linecap="round" /><line x1="15.95" y1="7.22" x2="16.42" y2="7.58" stroke="#202020" stroke-width="2" stroke-linecap="round" /><line x1="16.42" y1="7.58" x2="16.85" y2="7.98" stroke="#181818" stroke-width="2" stroke-linecap="round" /><line x1="16.85" y1="7.98" x2="17.25" y2="8.43" stroke="#111111" stroke-width="2" stroke-linecap="round" /><line x1="17.25" y1="8.43" x2="17.61" y2="8.92" stroke="#090909" stroke-width="2" stroke-linecap="round" /><line x1="17.61" y1="8.92" x2="17.92" y2="9.44" stroke="#010101" stroke-width="2" stroke-linecap="round" /><line x1="17.92" y1="9.44" x2="18.18" y2="9.99" stroke="#0b0b0b" stroke-width="2" stroke-linecap="round" /><line x1="18.18" y1="9.99" x2="18.39" y2="10.57" stroke="#1a1a1a" stroke-width="2" stroke-linecap="round" /><line x1="18.39" y1="10.57" x2="18.55" y2="11.17" stroke="#292929" stroke-width="2" stroke-linecap="round" /><line x1="18.55" y1="11.17" x2="18.65" y2="11.79" stroke="#383838" stroke-width="2" stroke-linecap="round" /><line x1="18.65" y1="11.79" x2="18.69" y2="12.42" stroke="#474747" stroke-width="2" stroke-linecap="round" /><line x1="18.69" y1="12.42" x2="18.67" y2="13.06" stroke="#565656" stroke-width="2" stroke-linecap="round" /><line x1="18.67" y1="13.06" x2="18.59" y2="13.69" stroke="#656565" stroke-width="2" stroke-linecap="round" /><line x1="18.59" y1="13.69" x2="18.45" y2="14.32" stroke="#757575" stroke-width="2" stroke-linecap="round" /><line x1="18.45" y1="14.32" x2="18.24" y2="14.94" stroke="#848484" stroke-width="2" stroke-linecap="round" /><line x1="18.24" y1="14.94" x2="17.98" y2="15.54" stroke="#949494" stroke-width="2" stroke-linecap="round" /><line x1="17.98" y1="15.54" x2="17.66" y2="16.11" stroke="#a4a4a4" stroke-width="2" stroke-linecap="round" /><line x1="17.66" y1="16.11" x2="17.29" y2="16.66" stroke="#b3b3b3" stroke-width="2" stroke-linecap="round" /><line x1="17.29" y1="16.66" x2="16.86" y2="17.18" stroke="#c3c3c3" stroke-width="2" stroke-linecap="round" /><line x1="16.86" y1="17.18" x2="16.38" y2="17.65" stroke="#d3d3d3" stroke-width="2" stroke-linecap="round" /><line x1="16.38" y1="17.65" x2="15.86" y2="18.08" stroke="#e4e4e4" stroke-width="2" stroke-linecap="round" /><line x1="15.86" y1="18.08" x2="15.29" y2="18.46" stroke="#ededed" stroke-width="2" stroke-linecap="round" /><line x1="15.29" y1="18.46" x2="14.69" y2="18.79" stroke="#e6e6e6" stroke-width="2" stroke-linecap="round" /><line x1="14.69" y1="18.79" x2="14.05" y2="19.06" stroke="#dedede" stroke-width="2" stroke-linecap="round" /><line x1="14.05" y1="19.06" x2="13.39" y2="19.27" stroke="#d6d6d6" stroke-width="2" stroke-linecap="round" /><line x1="13.39" y1="19.27" x2="12.70" y2="19.42" stroke="#cecece" stroke-width="2" stroke-linecap="round" /><line x1="12.70" y1="19.42" x2="12.00" y2="19.50" stroke="#c7c7c7" stroke-width="2" stroke-linecap="round" /><line x1="12.00" y1="19.50" x2="11.29" y2="19.52" stroke="#bfbfbf" stroke-width="2" stroke-linecap="round" /><line x1="11.29" y1="19.52" x2="10.58" y2="19.47" stroke="#b7b7b7" stroke-width="2" stroke-linecap="round" /><line x1="10.58" y1="19.47" x2="9.87" y2="19.35" stroke="#afafaf" stroke-width="2" stroke-linecap="round" /><line x1="9.87" y1="19.35" x2="9.17" y2="19.16" stroke="#a6a6a6" stroke-width="2" stroke-linecap="round" /><line x1="9.17" y1="19.16" x2="8.48" y2="18.91" stroke="#9e9e9e" stroke-width="2" stroke-linecap="round" /><line x1="8.48" y1="18.91" x2="7.82" y2="18.59" stroke="#969696" stroke-width="2" stroke-linecap="round" /><line x1="7.82" y1="18.59" x2="7.19" y2="18.20" stroke="#8e8e8e" stroke-width="2" stroke-linecap="round" /><line x1="7.19" y1="18.20" x2="6.59" y2="17.76" stroke="#868686" stroke-width="2" stroke-linecap="round" /><line x1="6.59" y1="17.76" x2="6.04" y2="17.26" stroke="#7d7d7d" stroke-width="2" stroke-linecap="round" /><line x1="6.04" y1="17.26" x2="5.53" y2="16.70" stroke="#737373" stroke-width="2" stroke-linecap="round" /><line x1="5.53" y1="16.70" x2="5.07" y2="16.10" stroke="#6a6a6a" stroke-width="2" stroke-linecap="round" /><line x1="5.07" y1="16.10" x2="4.67" y2="15.45" stroke="#606060" stroke-width="2" stroke-linecap="round" /><line x1="4.67" y1="15.45" x2="4.33" y2="14.76" stroke="#565656" stroke-width="2" stroke-linecap="round" /><line x1="4.33" y1="14.76" x2="4.06" y2="14.04" stroke="#4c4c4c" stroke-width="2" stroke-linecap="round" /><line x1="4.06" y1="14.04" x2="3.85" y2="13.29" stroke="#424242" stroke-width="2" stroke-linecap="round" /><line x1="3.85" y1="13.29" x2="3.72" y2="12.52" stroke="#383838" stroke-width="2" stroke-linecap="round" /><line x1="3.72" y1="12.52" x2="3.65" y2="11.74" stroke="#2e2e2e" stroke-width="2" stroke-linecap="round" /><line x1="3.65" y1="11.74" x2="3.67" y2="10.95" stroke="#242424" stroke-width="2" stroke-linecap="round" /><line x1="3.67" y1="10.95" x2="3.75" y2="10.16" stroke="#1a1a1a" stroke-width="2" stroke-linecap="round" /><line x1="3.75" y1="10.16" x2="3.92" y2="9.37" stroke="#101010" stroke-width="2" stroke-linecap="round" /><line x1="3.92" y1="9.37" x2="4.15" y2="8.60" stroke="#060606" stroke-width="2" stroke-linecap="round" /><line x1="4.15" y1="8.60" x2="4.46" y2="7.86" stroke="#070707" stroke-width="2" stroke-linecap="round" /><line x1="4.46" y1="7.86" x2="4.85" y2="7.14" stroke="#1b1b1b" stroke-width="2" stroke-linecap="round" /><line x1="4.85" y1="7.14" x2="5.30" y2="6.45" stroke="#2e2e2e" stroke-width="2" stroke-linecap="round" /><line x1="5.30" y1="6.45" x2="5.81" y2="5.81" stroke="#424242" stroke-width="2" stroke-linecap="round" /><line x1="5.81" y1="5.81" x2="6.39" y2="5.22" stroke="#565656" stroke-width="2" stroke-linecap="round" /><line x1="6.39" y1="5.22" x2="7.03" y2="4.68" stroke="#6a6a6a" stroke-width="2" stroke-linecap="round" /><line x1="7.03" y1="4.68" x2="7.71" y2="4.20" stroke="#7e7e7e" stroke-width="2" stroke-linecap="round" /><line x1="7.71" y1="4.20" x2="8.45" y2="3.79" stroke="#929292" stroke-width="2" stroke-linecap="round" /><line x1="8.45" y1="3.79" x2="9.22" y2="3.44" stroke="#a6a6a6" stroke-width="2" stroke-linecap="round" /><line x1="9.22" y1="3.44" x2="10.03" y2="3.17" stroke="#bbbbbb" stroke-width="2" stroke-linecap="round" /><line x1="10.03" y1="3.17" x2="10.86" y2="2.97" stroke="#cfcfcf" stroke-width="2" stroke-linecap="round" /><line x1="10.86" y1="2.97" x2="11.71" y2="2.85" stroke="#e4e4e4" stroke-width="2" stroke-linecap="round" /><line x1="11.71" y1="2.85" x2="12.58" y2="2.82" stroke="#ebebeb" stroke-width="2" stroke-linecap="round" /><line x1="12.58" y1="2.82" x2="13.45" y2="2.86" stroke="#e2e2e2" stroke-width="2" stroke-linecap="round" /><line x1="13.45" y1="2.86" x2="14.31" y2="2.99" stroke="#d8d8d8" stroke-width="2" stroke-linecap="round" /><line x1="14.31" y1="2.99" x2="15.17" y2="3.20" stroke="#cecece" stroke-width="2" stroke-linecap="round" /><line x1="15.17" y1="3.20" x2="16.00" y2="3.49" stroke="#c4c4c4" stroke-width="2" stroke-linecap="round" /><line x1="16.00" y1="3.49" x2="16.81" y2="3.87" stroke="#bababa" stroke-width="2" stroke-linecap="round" /><line x1="16.81" y1="3.87" x2="17.58" y2="4.31" stroke="#b0b0b0" stroke-width="2" stroke-linecap="round" /><line x1="17.58" y1="4.31" x2="18.32" y2="4.84" stroke="#a6a6a6" stroke-width="2" stroke-linecap="round" /><line x1="18.32" y1="4.84" x2="19.00" y2="5.43" stroke="#9c9c9c" stroke-width="2" stroke-linecap="round" /><line x1="19.00" y1="5.43" x2="19.62" y2="6.09" stroke="#929292" stroke-width="2" stroke-linecap="round" /><line x1="19.62" y1="6.09" x2="20.19" y2="6.80" stroke="#888888" stroke-width="2" stroke-linecap="round" /><line x1="20.19" y1="6.80" x2="20.69" y2="7.57" stroke="#7d7d7d" stroke-width="2" stroke-linecap="round" /><line x1="20.69" y1="7.57" x2="21.11" y2="8.39" stroke="#717171" stroke-width="2" stroke-linecap="round" /><line x1="21.11" y1="8.39" x2="21.46" y2="9.25" stroke="#656565" stroke-width="2" stroke-linecap="round" /><line x1="21.46" y1="9.25" x2="21.72" y2="10.14" stroke="#5a5a5a" stroke-width="2" stroke-linecap="round" /><line x1="21.72" y1="10.14" x2="21.91" y2="11.06" stroke="#4e4e4e" stroke-width="2" stroke-linecap="round" /><line x1="21.91" y1="11.06" x2="22.00" y2="12.00" stroke="#424242" stroke-width="2" stroke-linecap="round" /></svg>